<?xml version="1.0" encoding="UTF-8" standalone="no"?>
<!-- Created with Inkscape (http://www.inkscape.org/) -->

<svg
   version="1.1"
   id="svg1"
   width="1077.9413"
   height="998.32684"
   viewBox="0 0 1077.9413 998.32684"
   sodipodi:docname="budjet_logo_thin.svg"
   inkscape:version="1.4 (86a8ad7, 2024-10-11)"
   xmlns:inkscape="http://www.inkscape.org/namespaces/inkscape"
   xmlns:sodipodi="http://sodipodi.sourceforge.net/DTD/sodipodi-0.dtd"
   xmlns="http://www.w3.org/2000/svg"
   xmlns:svg="http://www.w3.org/2000/svg">
  <defs
     id="defs1">
    <rect
       x="667.55139"
       y="363.88598"
       width="199.88103"
       height="196.03717"
       id="rect12" />
    <rect
       x="677.8017"
       y="336.97892"
       width="142.22304"
       height="207.56876"
       id="rect11" />
    <rect
       x="698.30232"
       y="385.66789"
       width="213.97521"
       height="319.04088"
       id="rect10" />
    <rect
       x="677.8017"
       y="401.04335"
       width="123.00371"
       height="149.91077"
       id="rect6" />
    <rect
       x="677.8017"
       y="336.97891"
       width="142.22304"
       height="207.56876"
       id="rect11-2" />
    <rect
       x="667.55139"
       y="363.88599"
       width="199.88103"
       height="196.03717"
       id="rect12-1" />
  </defs>
  <sodipodi:namedview
     id="namedview1"
     pagecolor="#ffffff"
     bordercolor="#111111"
     borderopacity="1"
     inkscape:showpageshadow="0"
     inkscape:pageopacity="0"
     inkscape:pagecheckerboard="1"
     inkscape:deskcolor="#d1d1d1"
     inkscape:zoom="0.78431228"
     inkscape:cx="539.326"
     inkscape:cy="499.16342"
     inkscape:window-width="1920"
     inkscape:window-height="1001"
     inkscape:window-x="-9"
     inkscape:window-y="-9"
     inkscape:window-maximized="1"
     inkscape:current-layer="svg1" />
  <path
     d="M 505.66907,749.13129 524.73227,491.28 651.73598,567.1883 491.45672,768.80089 Z"
     style="display:inline;fill:#154f15;fill-opacity:1;stroke:#154f15;stroke-width:20;stroke-linecap:round;stroke-linejoin:round;stroke-dasharray:none;stroke-opacity:1;paint-order:normal"
     id="path1-1"
     sodipodi:nodetypes="ccccc" />
  <g
     inkscape:groupmode="layer"
     id="layer1"
     inkscape:label="Image 1"
     style="display:inline">
    <path
       style="display:inline;fill:#41be41;fill-opacity:1;stroke:none;stroke-width:35;stroke-linecap:round;stroke-linejoin:round;stroke-dasharray:none;stroke-opacity:1;paint-order:normal"
       d="M 116.59727,493.29614 893.0582,73.033454 c 0,0 30.75093,-10.250309 29.46964,12.812886 -1.28129,23.0632 -75.59603,593.23665 -75.59603,593.23665 L 531.7348,498.42129 508.6716,748.27258 c 0,0 -15.37546,43.56381 -47.40768,46.12639 -32.03222,2.56258 -46.12639,-12.81289 -51.25155,-28.18835 -5.12515,-15.37546 -34.59479,-284.44608 -34.59479,-284.44608 z"
       id="path5"
       sodipodi:nodetypes="ccscccsscc" />
    <path
       id="path5-2-7"
       style="display:inline;fill:#f3eea6;fill-opacity:1;stroke:none;stroke-width:35;stroke-linecap:round;stroke-linejoin:round;stroke-dasharray:none;stroke-opacity:1;paint-order:normal"
       d="m 425.54297,324.39453 -153.92969,83.31445 a 89.049561,89.049561 0 0 0 69.33008,33.44922 89.049561,89.049561 0 0 0 89.04883,-89.04882 89.049561,89.049561 0 0 0 -4.44922,-27.71485 z" />
    <path
       id="path1-2"
       style="display:inline;fill:#299c29;fill-opacity:1;stroke:none;stroke-width:35;stroke-linecap:round;stroke-linejoin:round;stroke-dasharray:none;stroke-opacity:1;paint-order:normal"
       d="M 924.12132,77.127263 894.90148,68.565868 377.76914,482.39848 c 0,0 29.49832,253.98153 34.62352,269.35699 5.1251,15.37546 15.37588,36.84426 47.40808,34.28168 32.0322,-2.56258 43.56433,-43.25211 43.56433,-43.25211 l 26.2265,-246.88085 z"
       sodipodi:nodetypes="cccssccc" />
    <path
       style="display:inline;fill:none;fill-opacity:1;stroke:#000000;stroke-width:15;stroke-linecap:round;stroke-linejoin:round;stroke-dasharray:none;stroke-opacity:1;paint-order:normal"
       d="M 116.32572,488.9168 892.7867,68.654111 c 0,0 30.7509,-10.250309 29.4696,12.812886 -1.2813,23.063203 -75.596,593.236653 -75.596,593.236653 l -315.19705,-180.6617 -23.0632,249.85129 c 0,0 -15.37546,43.56381 -47.40768,46.12639 -32.03222,2.56258 -46.12639,-12.81289 -51.25155,-28.18835 C 404.61567,746.45582 375.14603,477.3852 375.14603,477.3852 Z"
       id="path5-2"
       sodipodi:nodetypes="ccscccsscc" />
    <path
       style="display:inline;fill:#00ff00;fill-opacity:1;stroke:#000000;stroke-width:15;stroke-linecap:round;stroke-linejoin:round;stroke-dasharray:none;stroke-opacity:1;paint-order:normal"
       d="M 235.75711,828.99377 343.38536,721.36552 Z"
       id="path6" />
    <path
       style="display:inline;fill:#299c29;fill-opacity:1;stroke:#000000;stroke-width:15;stroke-linecap:round;stroke-linejoin:round;stroke-dasharray:none;stroke-opacity:1;paint-order:normal"
       d="m 274.51366,670.26954 60.22057,-57.65799 z"
       id="path6-6"
       sodipodi:nodetypes="ccc" />
    <path
       style="display:inline;fill:#299c29;fill-opacity:1;stroke:#000000;stroke-width:15;stroke-linecap:round;stroke-linejoin:round;stroke-dasharray:none;stroke-opacity:1;paint-order:normal"
       d="m 511.23418,917.40268 30.75093,-78.15861 z"
       id="path7" />
    <path
       style="display:inline;fill:#299c29;fill-opacity:1;stroke:#000000;stroke-width:15;stroke-linecap:round;stroke-linejoin:round;stroke-dasharray:none;stroke-opacity:1;paint-order:normal"
       d="M 379.26144,475.20196 654.73851,265.22675 Z"
       id="path8"
       sodipodi:nodetypes="ccc" />
    <path
       style="display:inline;fill:#299c29;fill-opacity:1;stroke:#000000;stroke-width:15;stroke-linecap:round;stroke-linejoin:round;stroke-dasharray:none;stroke-opacity:1;paint-order:normal"
       d="m 531.7348,488.17099 66.93928,-69.1896 z"
       id="path9"
       sodipodi:nodetypes="ccc" />
    <path
       style="display:inline;fill:#299c29;fill-opacity:1;stroke:#000000;stroke-width:15;stroke-linecap:round;stroke-linejoin:round;stroke-dasharray:none;stroke-opacity:1;paint-order:normal"
       d="M 639.11273,377.26144 796.33702,203.7249 Z"
       id="path10"
       sodipodi:nodetypes="ccc" />
    <circle
       style="fill:#f3eea6;fill-opacity:1;stroke:none;stroke-width:20;stroke-linecap:round;stroke-linejoin:round;stroke-dasharray:none;stroke-opacity:1;paint-order:normal"
       id="path11"
       cx="751.47583"
       cy="454.2168"
       r="89.049561" />
    <text
       xml:space="preserve"
       id="text11"
       style="font-style:normal;font-variant:normal;font-weight:bold;font-stretch:normal;font-size:173.333px;font-family:'Miriam CLM';-inkscape-font-specification:'Miriam CLM Bold';text-align:start;writing-mode:lr-tb;direction:ltr;white-space:pre;shape-inside:url(#rect12);display:inline;fill:#41be41;fill-opacity:1;stroke:none;stroke-width:5;stroke-linecap:round;stroke-linejoin:round;stroke-dasharray:none;stroke-opacity:1;paint-order:normal"
       transform="rotate(10,807.44555,711.64558)"><tspan
         x="667.55078"
         y="515.55309"
         id="tspan1">$</tspan></text>
  </g>
</svg>
